PathFileType	4	(X/Y/Z)	OpenSim_Sub02_CSBaseline_Magnet.trc
DataRate	CameraRate	NumFrames	NumMarkers	Units	OrigDataRate	OrigDataStartFrame	OrigNumFrames
100	100	40	8	m	100	883	7057
Frame#	Time	torso_imu_offset_imu	pelvis_imu_offset_imu	tibia_r_imu_offset_imu	femur_r_imu_offset_imu	tibia_l_imu_offset_imu	femur_l_imu_offset_imu	toes_r_imu_offset_imu	toes_l_imu_offset_imu
				X1	Y1	Z1	X2	Y2	Z2	X3	Y3	Z3	X4	Y4	Z4	X5	Y5	Z5	X6	Y6	Z6	X7	Y7	Z7	X8		Y8	Z8	

883	8.82000000	-0.92694427	-0.22702809	-0.02567028	-0.68017766	0.24249845	-0.60104565	-0.19617044	-0.61673648	-0.51579014	-0.85146830	-0.13510051	-0.06817751	-0.64339554	0.51818701	0.09182611	-0.57570188	0.17712137	0.33122979	-0.60310329	-0.61421953	-0.11152872	-0.61977038	-0.21783651	-0.49525163
884	8.83000000	-0.92567383	-0.22164980	-0.02587481	-0.68047307	0.24393357	-0.60192706	-0.22078599	-0.62470419	-0.49765227	-0.85074759	-0.13102835	-0.06855615	-0.64050874	0.52812505	0.09037243	-0.57540674	0.18419238	0.32890261	-0.60063802	-0.58544737	-0.14880325	-0.61813366	-0.21300682	-0.50200692
885	8.84000000	-0.92571627	-0.22422626	-0.02169087	-0.67614611	0.24774804	-0.60055019	-0.24541160	-0.62712183	-0.48018978	-0.84894731	-0.12497392	-0.07318037	-0.63581100	0.53278439	0.08996953	-0.56874020	0.17639013	0.33013234	-0.59195548	-0.56015617	-0.18051242	-0.62373338	-0.20835731	-0.50519908
886	8.85000000	-0.92619981	-0.22404386	-0.02477992	-0.67310066	0.25290335	-0.60297888	-0.28018008	-0.62761935	-0.46494324	-0.85297063	-0.11905051	-0.07485120	-0.63410990	0.53411190	0.08559821	-0.56825265	0.18322609	0.33129288	-0.57897454	-0.54368005	-0.21165253	-0.62763744	-0.20553727	-0.50829737
887	8.86000000	-0.92830304	-0.22337662	-0.02078746	-0.67547105	0.25594748	-0.60338383	-0.30728272	-0.62527497	-0.44875814	-0.85289701	-0.11781648	-0.08284982	-0.62546553	0.54703757	0.08029028	-0.56749045	0.18541017	0.33338514	-0.57086546	-0.52660134	-0.24108926	-0.62897580	-0.20421916	-0.51168998
888	8.87000000	-0.92614419	-0.22737543	-0.02424873	-0.66909998	0.26096923	-0.60586736	-0.33938894	-0.61673308	-0.43143158	-0.85050392	-0.11313024	-0.07537034	-0.62218854	0.54923607	0.08321130	-0.56100645	0.18708573	0.33888296	-0.55799284	-0.51256818	-0.25633308	-0.62489718	-0.19685098	-0.51232018
889	8.88000000	-0.91952489	-0.23389003	-0.02412623	-0.66654148	0.26110490	-0.60503945	-0.36804973	-0.61087788	-0.41781772	-0.84706035	-0.11552205	-0.07743948	-0.61603893	0.55713477	0.07531432	-0.55906250	0.19353692	0.33849595	-0.55073088	-0.49195191	-0.27258574	-0.62529244	-0.18984466	-0.51730226
890	8.89000000	-0.92091170	-0.22779802	-0.01917209	-0.66463682	0.26701105	-0.60692070	-0.39947792	-0.60059360	-0.41067515	-0.85407634	-0.11121175	-0.07856384	-0.60899399	0.56800994	0.07101529	-0.56287027	0.19398840	0.33584893	-0.54940268	-0.47649994	-0.28518619	-0.63168601	-0.18494114	-0.52211241
891	8.90000000	-0.92600557	-0.23091522	-0.01575514	-0.66848353	0.26731141	-0.61035825	-0.43619359	-0.58074027	-0.40406235	-0.85479678	-0.10661587	-0.07641143	-0.61162397	0.56950930	0.08104690	-0.55215712	0.19595648	0.33314765	-0.54904100	-0.46318608	-0.30124073	-0.62808903	-0.18104770	-0.52500921
892	8.91000000	-0.92139587	-0.23398178	-0.01217302	-0.66443866	0.26325756	-0.60685684	-0.46383178	-0.55560204	-0.40179682	-0.85101178	-0.11086667	-0.07259389	-0.61002277	0.57423931	0.07365015	-0.54431927	0.20278528	0.33690293	-0.55448248	-0.44960664	-0.32107652	-0.63346094	-0.17300545	-0.52644989
893	8.92000000	-0.92433390	-0.23560545	-0.01071146	-0.66188722	0.26678921	-0.60586316	-0.48463767	-0.52840462	-0.40590210	-0.84942861	-0.11267196	-0.07119671	-0.59937423	0.57949208	0.07708490	-0.53985037	0.20700602	0.33627668	-0.55775525	-0.43373161	-0.34262331	-0.63565355	-0.16783331	-0.53411680
894	8.93000000	-0.93050533	-0.23293563	-0.01324617	-0.66534106	0.26946850	-0.60466278	-0.51384827	-0.49968099	-0.40634333	-0.85234671	-0.11223059	-0.07761284	-0.59620450	0.58464877	0.07375519	-0.54010187	0.21043863	0.34413776	-0.55818914	-0.41797313	-0.36661818	-0.63684839	-0.16427545	-0.53977417
895	8.94000000	-0.92264803	-0.23744822	-0.00514181	-0.66540901	0.27432260	-0.60529946	-0.53788747	-0.47798293	-0.40843183	-0.85132229	-0.11920766	-0.07532564	-0.59085174	0.58844440	0.06918653	-0.53719557	0.21437755	0.33727639	-0.55741604	-0.39692453	-0.39213897	-0.63961470	-0.16312219	-0.54053465
896	8.95000000	-0.92507611	-0.24004305	-0.00754749	-0.66139977	0.26933586	-0.61039459	-0.56466357	-0.45120828	-0.39617818	-0.85391614	-0.12224687	-0.06965700	-0.58498511	0.59662788	0.07477257	-0.53286568	0.22244550	0.34115559	-0.55371290	-0.38016769	-0.41713976	-0.64814268	-0.15386183	-0.54208493
897	8.96000000	-0.92294612	-0.24297432	-0.01328234	-0.66228282	0.27349800	-0.60829781	-0.59026430	-0.42884458	-0.38726960	-0.84918466	-0.12893167	-0.06324576	-0.58046302	0.60133112	0.07708032	-0.52843327	0.22660529	0.34264321	-0.54765208	-0.36490864	-0.44320292	-0.64963730	-0.15373070	-0.54550843
898	8.97000000	-0.92574411	-0.23996435	-0.00910003	-0.66146363	0.27021484	-0.61074304	-0.60850036	-0.41118349	-0.37737237	-0.84667075	-0.13674521	-0.06234826	-0.57272966	0.60674506	0.07256399	-0.52478457	0.23439773	0.35083104	-0.53552056	-0.34556067	-0.47458689	-0.65128229	-0.14579874	-0.54197608
899	8.98000000	-0.92401552	-0.23905062	-0.01213799	-0.65837544	0.26910369	-0.61008813	-0.63265399	-0.39542715	-0.36654629	-0.84297537	-0.14101445	-0.06504917	-0.56963273	0.61057207	0.07059929	-0.52347662	0.24239536	0.35606462	-0.52433978	-0.32743688	-0.50593317	-0.65335848	-0.14055344	-0.53668407
900	8.99000000	-0.92062105	-0.24190831	-0.01038474	-0.65500816	0.26832926	-0.61114168	-0.64474841	-0.37666499	-0.35800623	-0.84293169	-0.15749456	-0.06549922	-0.56895665	0.61929499	0.06944953	-0.51976032	0.24523687	0.34463066	-0.51233329	-0.30719538	-0.52667562	-0.66427206	-0.14455449	-0.53515034
901	9.00000000	-0.92464905	-0.24249710	-0.01070005	-0.65566428	0.26775748	-0.61739643	-0.66198626	-0.36436749	-0.34516404	-0.84304823	-0.16596907	-0.06212627	-0.55807894	0.62654487	0.06143511	-0.51453119	0.24927416	0.33934394	-0.50632693	-0.28123028	-0.55106727	-0.67318653	-0.14587294	-0.53899050
902	9.01000000	-0.92640360	-0.24512481	-0.01717304	-0.65876044	0.26781187	-0.61718080	-0.67293736	-0.33840779	-0.33673125	-0.84090317	-0.17381555	-0.06118998	-0.55541163	0.63359570	0.06039454	-0.51140376	0.25810842	0.33760307	-0.49622027	-0.26396800	-0.57327003	-0.67812969	-0.13719747	-0.53008760
903	9.02000000	-0.92241430	-0.24773189	-0.01281370	-0.65726786	0.26109805	-0.61003989	-0.68769991	-0.32435789	-0.32582383	-0.83459089	-0.18715213	-0.06224741	-0.54907531	0.63629462	0.05316528	-0.50712519	0.26455820	0.34211282	-0.48901570	-0.25642351	-0.58197998	-0.68431163	-0.14362786	-0.52369041
904	9.03000000	-0.92301529	-0.23981333	-0.00744328	-0.64996101	0.26212282	-0.61644975	-0.69219337	-0.30652636	-0.32822591	-0.83401716	-0.19017285	-0.05893720	-0.54163267	0.64319242	0.04841683	-0.50842564	0.27017105	0.33107298	-0.47885120	-0.23908302	-0.59974743	-0.68952975	-0.13900259	-0.52626922
905	9.04000000	-0.91924723	-0.24171674	-0.01211732	-0.65109305	0.26420397	-0.61614728	-0.70082294	-0.29398887	-0.32140103	-0.83615062	-0.19967640	-0.05267147	-0.53614909	0.65106228	0.04478410	-0.50528151	0.27628503	0.32925494	-0.46561637	-0.22920380	-0.60951214	-0.69556179	-0.13448222	-0.51587113
906	9.05000000	-0.91695864	-0.24325425	-0.01091816	-0.65094080	0.26021198	-0.61626884	-0.70519887	-0.28066018	-0.32120235	-0.83331017	-0.20459794	-0.04817925	-0.52513537	0.66142442	0.04343689	-0.50773962	0.28182911	0.32630247	-0.45831711	-0.22246478	-0.61612837	-0.70149529	-0.13972576	-0.51003162
907	9.06000000	-0.92286571	-0.24200434	-0.01225183	-0.65035845	0.26082389	-0.62255595	-0.70770926	-0.27711074	-0.31626933	-0.82947268	-0.21090856	-0.04968919	-0.51661509	0.66772834	0.03785914	-0.50356986	0.28088905	0.32721762	-0.45426538	-0.21112779	-0.62466750	-0.71327928	-0.13492817	-0.50246858
908	9.07000000	-0.92469987	-0.23740764	-0.01349591	-0.64825057	0.26100376	-0.62059530	-0.70591508	-0.27713786	-0.30988770	-0.83344267	-0.20742270	-0.04797989	-0.50830607	0.67407048	0.03364316	-0.50229774	0.28814556	0.32294805	-0.45463458	-0.20242194	-0.62958738	-0.71570039	-0.13649669	-0.49382532
909	9.08000000	-0.92398919	-0.23787624	-0.01573064	-0.64955076	0.26437400	-0.61997191	-0.70895156	-0.27857318	-0.31221510	-0.83005957	-0.20639766	-0.04117079	-0.49715045	0.68215197	0.02659565	-0.50517428	0.29194604	0.31854529	-0.45197746	-0.20056314	-0.62661281	-0.71755168	-0.13819255	-0.48775923
910	9.09000000	-0.92258137	-0.24051381	-0.02036685	-0.65074424	0.26710486	-0.62168646	-0.70963973	-0.28628779	-0.30880114	-0.82927009	-0.20548150	-0.02786045	-0.48364315	0.69221494	0.01491355	-0.50041319	0.29660764	0.30747044	-0.45517203	-0.20360565	-0.62301280	-0.72953347	-0.13813198	-0.47958329
911	9.10000000	-0.91796868	-0.23982624	-0.01755763	-0.64871760	0.26356183	-0.61867963	-0.70629522	-0.29409302	-0.30706431	-0.82808261	-0.20539053	-0.02526083	-0.47785096	0.69905206	0.01449918	-0.50408070	0.30046448	0.30596272	-0.46510237	-0.21246849	-0.61775736	-0.73124005	-0.13830609	-0.46334692
912	9.11000000	-0.92645066	-0.24222416	-0.01861189	-0.64811929	0.25992315	-0.61637312	-0.70112935	-0.30933764	-0.30207175	-0.82854509	-0.20350522	-0.01611019	-0.46811625	0.70729586	0.00952048	-0.50726434	0.30153209	0.30248660	-0.47143817	-0.22318905	-0.59997782	-0.73933504	-0.13827055	-0.44865719
913	9.12000000	-0.92413243	-0.23859226	-0.02110110	-0.64638930	0.25848224	-0.61318271	-0.69283938	-0.33355487	-0.29290094	-0.83437994	-0.19177064	-0.00814327	-0.45618961	0.71544349	-0.00392438	-0.50528505	0.30239032	0.29272743	-0.48294378	-0.22224884	-0.59633725	-0.74880589	-0.13973096	-0.44087581
914	9.13000000	-0.92416372	-0.23733815	-0.02246925	-0.65075104	0.25909477	-0.61428762	-0.68556120	-0.34922200	-0.28873536	-0.83408977	-0.18931498	-0.00004295	-0.43961242	0.72495990	-0.00208226	-0.51042828	0.30350349	0.28592305	-0.48677288	-0.22365203	-0.59130340	-0.75465641	-0.14405825	-0.42352064
915	9.14000000	-0.92783338	-0.23606300	-0.02372204	-0.65106434	0.26114122	-0.61916572	-0.68281991	-0.36521399	-0.28302658	-0.83635196	-0.18795941	0.00184463	-0.42284063	0.73418024	-0.01394507	-0.50921176	0.30542914	0.27480892	-0.48916711	-0.24363287	-0.57594528	-0.75617397	-0.14132466	-0.40449222
916	9.15000000	-0.92742589	-0.24086135	-0.03246515	-0.64816320	0.25998606	-0.61788902	-0.67927475	-0.37240466	-0.27522303	-0.83531714	-0.19174920	0.01427252	-0.40604358	0.74714590	-0.02011329	-0.51362327	0.31581486	0.26642395	-0.51253390	-0.26908391	-0.54932027	-0.76687854	-0.14136916	-0.38671625
917	9.16000000	-0.92647973	-0.23470439	-0.03755976	-0.65059685	0.25928674	-0.62153059	-0.67976896	-0.37438641	-0.27103678	-0.83329718	-0.19756435	0.02344476	-0.38812144	0.75277523	-0.03129468	-0.51440538	0.31649843	0.24831322	-0.53891208	-0.27370335	-0.52489172	-0.77336830	-0.14714466	-0.37013867
918	9.17000000	-0.92704061	-0.23247920	-0.03405074	-0.64210298	0.26040342	-0.61929991	-0.68408134	-0.37515500	-0.26877261	-0.82986120	-0.20260832	0.03155829	-0.37288970	0.76200370	-0.03935636	-0.52239735	0.31119219	0.24129551	-0.55679787	-0.27259943	-0.49975459	-0.78019587	-0.14122423	-0.33761476
919	9.18000000	-0.93170599	-0.23122220	-0.04075242	-0.64256379	0.26317172	-0.62305470	-0.68620884	-0.37908029	-0.26606492	-0.82325500	-0.21524661	0.04172999	-0.35171544	0.76477997	-0.05056088	-0.53033039	0.31679336	0.23285870	-0.56090121	-0.28707481	-0.48392398	-0.79411084	-0.14009236	-0.30471066
920	9.19000000	-0.92634155	-0.22843325	-0.04536110	-0.63996460	0.27425658	-0.62272529	-0.67271563	-0.39861255	-0.26818653	-0.82409208	-0.22334179	0.05156235	-0.33494932	0.77460039	-0.05724715	-0.53397863	0.30988167	0.23127261	-0.57648421	-0.28859742	-0.47153456	-0.80503070	-0.13603219	-0.27274232
921	9.20000000	-0.92621884	-0.23017649	-0.04513344	-0.64295007	0.27805616	-0.61672283	-0.65907524	-0.41982618	-0.25179843	-0.82970420	-0.22190328	0.04980067	-0.31464716	0.78352862	-0.06952316	-0.53902030	0.30465580	0.22378202	-0.58211742	-0.29334535	-0.45227487	-0.81588193	-0.13582595	-0.23419917
922	9.21000000	-0.93166081	-0.22734660	-0.04841126	-0.63329140	0.28669906	-0.61388018	-0.64891586	-0.44409355	-0.23709450	-0.82800996	-0.22060705	0.05774284	-0.29191667	0.79153431	-0.07955887	-0.55017037	0.29807991	0.21932246	-0.58898068	-0.29940578	-0.44864061	-0.82447053	-0.12502287	-0.18238835
